Coordinates
version=1
nRows=17
nColumns=36
inDegrees=yes

Units are S.I. units (second, meters, Newtons, ...)
If the header above contains a line with 'inDegrees', this indicates whether rotational values are in degrees (yes) or radians (no).

endheader
time	pelvis_tilt	pelvis_list	pelvis_rotation	pelvis_tx	pelvis_ty	pelvis_tz	hip_flexion_r	hip_adduction_r	hip_rotation_r	knee_angle_r	knee_angle_r_beta	ankle_angle_r	subtalar_angle_r	mtp_angle_r	hip_flexion_l	hip_adduction_l	hip_rotation_l	knee_angle_l	knee_angle_l_beta	ankle_angle_l	subtalar_angle_l	mtp_angle_l	lumbar_extension	lumbar_bending	lumbar_rotation	arm_flex_r	arm_add_r	arm_rot_r	elbow_flex_r	pro_sup_r	arm_flex_l	arm_add_l	arm_rot_l	elbow_flex_l	pro_sup_l
      4.31666670	    -44.78500485	     -8.13783118	      4.53594496	      1.05141813	      0.57564826	     -0.05892402	    110.90369573	    -19.22267924	     -7.13563193	     99.37402223	      1.73440388	     35.24258330	     -4.29891948	     -7.49999987	    115.80615690	    -14.51014930	      6.38463639	     97.09229260	      1.69458018	     30.42845975	    -10.34599086	     -7.49999987	    -15.31172898	      8.00585731	     15.27251345	     98.78554879	    -15.92935539	     81.53691645	    129.91040150	     51.87415679	     94.81699818	      9.10893133	     71.86566664	    104.37339659	     78.52091202
      4.33333330	    -44.29551907	     -8.21773352	      4.41168899	      1.06349231	      0.58268511	     -0.06002242	    108.64582022	    -18.90605943	     -7.63645180	     97.90167747	      1.70870662	     35.40306534	     -4.56273927	     -7.49999987	    113.77445827	    -14.76879755	      6.31220940	     95.90946840	      1.67393601	     31.30990042	     -9.78719251	     -7.49999987	    -14.73326016	      8.23387567	     15.12842709	     96.45874139	    -15.63686615	     82.89630488	    131.21123798	     52.33435219	     91.82185258	      9.64997497	     71.22519396	    105.55587960	     78.86394731
      4.35000000	    -43.66240735	     -8.32795765	      4.25378350	      1.07453000	      0.59091719	     -0.05446537	    106.15175554	    -18.35469600	     -8.01867561	     96.49673891	      1.68418581	     35.60802439	     -4.86516020	     -7.49999987	    111.53263782	    -15.18362488	      6.35257933	     94.73631082	      1.65346054	     32.46517390	     -8.96429670	     -7.49999987	    -14.18228016	      8.56736204	     14.77544712	     95.13534411	    -12.72318316	     81.90531213	    131.29438953	     63.60721295	     89.42777073	      8.31610337	     69.05605223	    107.68293113	     92.44432263
      4.36666670	    -42.95517908	     -8.18646083	      4.42714875	      1.07416997	      0.61269817	     -0.05562538	    103.38213275	    -18.08612853	     -8.17964852	     94.65846464	      1.65210187	     35.94849842	     -4.78598809	     -7.49999987	    108.73198732	    -15.36353495	      5.84203777	     92.98325854	      1.62286401	     33.29966595	     -8.21566020	     -7.49999987	    -14.68979702	      8.51479947	     13.95300126	     94.38559313	    -12.99782028	     82.26740309	    130.41433251	     63.52335132	     88.68432865	      7.45416981	     70.25609394	    107.19146197	     89.75063972
      4.38333330	    -42.54103253	     -8.39180070	      4.18394576	      1.08632251	      0.63555576	     -0.04843814	    100.10560329	    -17.18753749	     -8.91017865	     91.87472318	      1.60351642	     35.79248537	     -5.31350647	     -7.49999987	    105.88072795	    -16.02980591	      5.64778938	     90.63957535	      1.58195902	     34.14993766	     -7.23925894	     -7.49999987	    -14.65251981	      8.57868165	     14.74629647	     92.64538675	    -12.75075162	     82.35411657	    128.51068471	     63.57315197	     87.28621360	      6.78727596	     71.00756903	    106.68694330	     88.67344406
      4.40000000	    -41.83900967	     -8.69810435	      4.02629240	      1.09219975	      0.64493754	     -0.04649274	     96.70596525	    -16.27610672	     -9.64128386	     89.24095678	      1.55754852	     35.72561336	     -5.57632015	     -7.49999987	    102.89345599	    -16.82930722	      5.40925583	     88.38370243	      1.54258661	     34.62772374	     -6.02122282	     -7.49999987	    -14.54075111	      8.70546974	     14.40609803	     91.63484406	    -11.64316248	     81.78803680	    129.34937161	     63.72212225	     87.32958778	      6.78271964	     71.40214766	    108.10494977	     87.47895218
      4.41666670	    -40.48819963	     -8.84988081	      3.92111993	      1.09211493	      0.66283187	     -0.04697873	     92.76857389	    -15.33443955	    -10.38248333	     86.43184274	      1.50852023	     35.51818214	     -5.89810932	     -7.49999987	     99.25324560	    -17.73617809	      4.89167280	     85.95446705	      1.50018846	     34.86314467	     -4.97074281	     -7.49999987	    -15.32656640	      8.76199370	     14.50286882	     91.09831564	    -11.51986372	     80.34012615	    128.14241280	     64.02894933	     86.91488819	      6.36804769	     70.66668048	    108.00849289	     87.72759054
      4.43333330	    -39.26021277	     -8.87769696	      3.89435696	      1.09880200	      0.68159415	     -0.05068551	     88.91379965	    -14.64697794	    -11.16905841	     83.42682157	      1.45607272	     35.27389812	     -5.81562181	     -7.49999987	     95.54586235	    -18.41415645	      4.16841321	     83.26144983	      1.45318644	     34.75878809	     -4.08335128	     -7.49999987	    -15.93489984	      8.85238637	     14.13493485	     90.82633091	    -11.08644714	     81.22385910	    128.43301729	     72.50139657	     85.93687844	      6.36541122	     69.76994637	    108.29375535	     96.96285581
      4.45000000	    -37.89769808	     -8.73979830	      3.82993786	      1.09923171	      0.69218406	     -0.04888303	     85.38090787	    -13.98944577	    -11.73019632	     80.77490890	      1.40978811	     34.89085708	     -5.70674865	     -7.49999987	     91.88922351	    -19.15429592	      3.25871444	     80.79160497	      1.41007951	     34.70409337	     -3.03814180	     -7.49999987	    -16.29524028	      8.71406447	     13.91495756	     90.95346702	    -10.13990602	     80.29950423	    129.39545939	     72.62851850	     85.44700929	      5.94464021	     68.93477064	    108.97501043	     96.88446200
      4.46666670	    -36.52110148	     -8.51351398	      3.76447020	      1.10098454	      0.70400403	     -0.04896580	     82.24238342	    -13.49646552	    -12.20915756	     78.50088848	      1.37009897	     34.49634164	     -5.42075467	     -7.49999987	     88.52247098	    -19.79608799	      2.33582130	     78.62411598	      1.37224970	     34.61318688	     -2.12931279	     -7.49999987	    -16.58821740	      8.57530964	     13.36627732	     91.18435203	     -9.22993243	     79.95091371	    129.79866375	     73.01684142	     85.95063127	      5.60188845	     68.78213460	    109.94092404	     96.80292801
      4.48333330	    -35.04352089	     -8.20813970	      3.68616172	      1.10660036	      0.71726653	     -0.05168451	     79.07334882	    -13.08067369	    -12.66088017	     76.28175076	      1.33136771	     34.11812703	     -5.08708053	     -7.49999987	     85.03449519	    -20.32767614	      1.35635677	     76.47073143	      1.33466604	     34.46560618	     -1.35286591	     -7.49999987	    -16.91799740	      8.38726309	     12.73229269	     91.15381242	     -8.43028693	     78.33456518	    130.62296329	     73.61344783	     86.09768446	      5.36532281	     67.88253902	    111.14054861	     96.87196773
      4.50000000	    -33.09310156	     -7.69433658	      3.61215327	      1.11886990	      0.73741562	     -0.05902498	     75.02588822	    -12.76301592	    -13.08275040	     73.49281020	      1.28269151	     33.66702592	     -4.58296438	     -7.49999987	     80.40102182	    -20.71472886	     -0.02118947	     73.74574978	      1.28710614	     34.25993013	     -0.46347910	     -7.49999987	    -17.79174509	      8.11012480	     11.78236601	     89.53253597	     -8.39630109	     78.80836102	    130.78378867	     74.07451793	     84.73480503	      5.18875226	     68.14277184	    111.46132549	     95.56369172
      4.51666670	    -30.99809814	     -7.15992609	      3.62189897	      1.11481162	      0.75225247	     -0.04931014	     70.91427173	    -12.36691086	    -13.29560852	     70.68578248	      1.23369964	     33.02036094	     -4.20310937	     -7.49999987	     75.69084220	    -21.05000960	     -1.48997616	     70.91655068	      1.23772730	     33.79580755	      0.40532848	     -7.49999987	    -18.89705182	      7.58280756	     11.22446751	     89.37266765	     -7.26495907	     77.43341653	    130.33047764	     74.98845224	     85.17770586	      4.24407466	     67.95045168	    111.95060100	     94.93084592
      4.53333330	    -28.63130819	     -6.49436848	      3.60240573	      1.12794681	      0.77126097	     -0.05567304	     66.23890809	    -12.10672338	    -13.60636566	     67.46174010	      1.17742948	     32.29529055	     -3.62334073	     -7.49999987	     70.24746544	    -21.22834603	     -3.27122297	     67.57962755	      1.17948701	     33.14775842	      1.31886008	     -7.49999987	    -20.17353732	      6.94524322	     10.61767074	     88.69926329	     -6.76359404	     76.73844479	    130.07060874	     76.26804101	     85.33469113	      3.97140978	     68.24917415	    111.64503378	     95.59793532
      4.55000000	    -25.98015388	     -5.65484392	      3.54610233	      1.13969652	      0.78601474	     -0.06129972	     61.20551100	    -12.03232325	    -13.80541944	     64.14666569	      1.11957052	     31.66197028	     -2.79910832	     -7.49999987	     64.22364200	    -21.16899379	     -5.29928121	     64.04563421	      1.11780719	     32.48291118	      2.29660636	     -7.49999987	    -21.49960765	      6.24446784	      9.85202941	     87.40505657	     -6.15962334	     75.57457530	    131.30946571	     92.68902467	     84.18899662	      4.35535631	     67.84902257	    112.68599269	    102.61399391
      4.56666670	    -22.85229062	     -4.55889346	      3.39323625	      1.14639325	      0.80463015	     -0.06515289	     55.70542515	    -12.10609253	    -13.80093881	     60.70569593	      1.05951427	     30.90693518	     -1.85301159	     -7.49999987	     57.39142642	    -20.84982222	     -7.74877002	     60.15889932	      1.04997087	     31.94387101	      3.52175014	     -7.49999987	    -23.56037225	      5.23781687	      9.45491828	     87.09601400	     -6.11709703	     74.22179355	    132.08292081	     93.13096022	     83.71190317	      4.87166279	     68.33311366	    111.37292001	    102.87119049
      4.58333330	    -19.77317850	     -3.51411472	      3.15144711	      1.14718588	      0.82030685	     -0.06405534	     50.56693035	    -12.18113689	    -13.61100519	     57.61872524	      1.00563647	     30.06266446	     -0.92467534	     -7.49999987	     50.94675869	    -20.42147776	    -10.10912695	     56.51657004	      0.98640023	     31.51662128	      4.88709950	     -7.49999987	    -25.31192571	      4.12783078	      8.69119123	     87.12310142	     -5.31565038	     72.14772155	    132.33784984	     93.98417646	     84.37374554	      4.58454487	     67.81111586	    111.58638993	    102.93137395
